<svg width="194" height="150" viewBox="0 0 194 150" fill="none" xmlns="http://www.w3.org/2000/svg">
<path fill-rule="evenodd" clip-rule="evenodd" d="M59.9696 0.0509877C53.6063 0.651807 47.5634 4.88961 44.5872 10.8369L42.6014 14.8057L42.6014 31.7184V48.6303H47.1381H51.6748L51.8898 32.759C52.0988 17.3092 52.1467 16.8203 53.6843 14.3502C55.7206 11.0791 59.9598 9.07833 63.5658 9.687C66.9549 10.2584 70.7569 13.6146 71.3533 16.5604L71.8167 18.8511L76.8345 19.0416L81.8523 19.232L81.4728 16.7509C80.5356 10.6236 75.5322 3.9105 70.2654 1.71273C67.5028 0.56018 62.7308 -0.210153 59.9696 0.0509877ZM57.6757 28.9957L57.6757 33.5771H67.1791H76.6824L76.6824 63.3563V93.1354H66.8513L57.0203 93.1354V97.7168V102.298L81.598 102.298H106.176V97.7168V93.1354H96.3446H86.5135V63.3563L86.5135 33.5771L96.3446 33.5771H106.176V28.9957V24.4143L81.9257 24.4143L57.6757 24.4143V28.9957ZM111.419 29.3229C111.419 33.9888 111.492 34.2316 112.905 34.2316C115.524 34.2316 119.064 37.2141 120.31 40.4688C121.341 43.1673 121.363 43.7727 120.521 46.4797C119.887 48.5177 118.777 50.1435 117.082 51.514L114.579 53.539L103.167 53.7445L91.7568 53.9506V58.9051L91.7568 63.8596L103.39 63.5101C111.882 63.2555 115.855 62.8647 118.101 62.0643C125.353 59.4784 130.59 51.7326 130.59 43.5894C130.59 35.5929 125.142 28.1383 117.443 25.6022C111.46 23.6315 111.419 23.657 111.419 29.3229ZM42.6014 58.4476V63.029H57.0203H71.4392L71.4392 58.4476V53.8662H57.0203H42.6014V58.4476ZM131.081 68.5084C131.081 73.1048 131.188 73.5008 132.425 73.5008C136.123 73.5008 139.832 77.2661 140.482 81.6819C141.012 85.2809 139.745 88.378 136.757 90.7825L134.241 92.8082L122.83 93.0137L111.419 93.2199V97.7587V102.298H122.976C129.67 102.298 135.574 101.987 137.005 101.559C140.832 100.414 145.467 96.4897 147.729 92.4809C149.558 89.2393 149.76 88.3282 149.76 83.3181C149.76 78.9435 149.455 77.126 148.334 74.8098C145.734 69.4417 139.615 64.8793 133.763 63.9446L131.081 63.516V68.5084ZM42.6014 85.2816L42.6014 102.298H47.1892H51.777L51.777 85.2816V68.2649H47.1892H42.6014V85.2816ZM189.412 136.659V149.421H191.706H194V136.659V123.896H191.706H189.412V136.659ZM22.3048 125.821C21.2102 127.863 22.5394 129.922 24.7855 129.662C26.3198 129.486 26.5439 129.167 26.5439 127.169C26.5439 125.171 26.3198 124.852 24.7855 124.675C23.5468 124.532 22.814 124.871 22.3048 125.821ZM0 137.641L0 149.421H8.84797H17.6959V147.131V144.84H11.1419H4.58784V142.222V139.604H10.8142H17.0405V137.665V135.726L10.978 135.538L4.91554 135.35L4.71237 132.896L4.50853 130.441H11.1026H17.6959V128.15V125.86H8.84797H0L0 137.641ZM100.932 137.608V149.421H103.554H106.176L106.21 141.077L106.244 132.732L107.885 136.986C108.787 139.326 109.98 142.492 110.534 144.022C111.505 146.703 111.643 146.803 114.341 146.803C117.085 146.803 117.162 146.743 118.266 143.695C120.852 136.557 122.141 133.351 122.663 132.765C122.967 132.423 123.216 136.031 123.216 140.782V149.421H125.51H127.804V137.641V125.86H123.997H120.19L119.132 128.969C116.46 136.824 114.964 140.863 114.591 141.236C114.368 141.459 113.381 139.489 112.397 136.859C111.414 134.229 110.107 130.752 109.493 129.132L108.378 126.187L104.655 125.991L100.932 125.794V137.608ZM154.676 129.787C154.676 132.143 154.512 132.405 153.037 132.405C151.654 132.405 151.399 132.71 151.399 134.368C151.399 136.026 151.654 136.332 153.037 136.332C154.604 136.332 154.676 136.505 154.676 140.279C154.676 147.502 157.491 150.747 162.986 149.856C166.104 149.351 166.704 148.682 165.806 146.712C165.207 145.4 164.694 145.157 162.953 145.36C160.022 145.702 159.146 144.42 159.391 140.148L159.591 136.659L162.704 136.459C165.668 136.269 165.818 136.167 165.818 134.332C165.818 132.456 165.731 132.405 162.541 132.405H159.264V129.787C159.264 127.231 159.209 127.169 156.97 127.169C154.73 127.169 154.676 127.231 154.676 129.787ZM22.2838 140.913V149.421H24.5777H26.8716V140.913L26.8716 132.405H24.5777H22.2838L22.2838 140.913ZM34.4088 133.161C32.3436 134.288 31.4595 135.756 31.4595 138.055C31.4595 140.709 33.2271 142.064 37.4145 142.619C41.1693 143.116 42.2573 143.741 41.7343 145.101C41.2506 146.36 37.3011 146.517 34.1086 145.406C32.3954 144.81 31.8606 144.842 31.3992 145.57C30.4462 147.072 30.7195 147.864 32.4642 148.658C35.7026 150.131 39.2109 150.297 42.2907 149.122C45.4117 147.932 46.5338 146.578 46.5338 144.003C46.5338 141.716 44.5066 140.227 40.2314 139.372C36.145 138.556 35.1658 137.503 37.3876 136.316C38.4605 135.743 39.5386 135.741 41.7913 136.307C44.8284 137.071 45.841 136.646 45.8685 134.596C45.8928 132.738 37.1792 131.647 34.4088 133.161ZM53.2124 133.731C50.946 135.11 49.1554 138.406 49.1554 141.197C49.1554 148.151 58.472 152.511 64.1268 148.203L65.6618 147.034L63.9564 145.917C62.6738 145.078 61.9371 144.968 60.9894 145.475C59.0606 146.506 56.6867 146.28 55.4833 144.952C54.8869 144.293 54.3987 143.557 54.3987 143.316C54.3987 143.074 57.053 142.876 60.2973 142.876H66.1959V139.672C66.1959 136.823 65.939 136.242 63.8791 134.436C61.9869 132.777 60.996 132.405 58.472 132.407C56.53 132.409 54.5756 132.9 53.2124 133.731ZM70.7838 140.913V149.421H72.75H74.7162V144.185C74.7162 138.417 75.8206 136.332 78.8748 136.332C81.6897 136.332 82.5811 138.193 82.5811 144.074V149.421H84.9346H87.2882L87.0647 142.492C86.8497 135.834 86.7691 135.499 85.0022 133.983C82.8518 132.138 79.5459 131.908 76.6497 133.403C74.9168 134.298 74.7162 134.298 74.7162 133.403C74.7162 132.73 74.0752 132.405 72.75 132.405H70.7838V140.913ZM135.793 133.731C133.471 135.144 131.735 138.421 131.739 141.383C131.742 143.681 133.768 147.041 136.05 148.534C138.465 150.114 144.009 150.116 146.425 148.536L148.28 147.324L146.965 146.013C145.769 144.817 145.437 144.778 143.243 145.57C141.195 146.31 140.579 146.295 139.124 145.476C135.691 143.543 136.547 142.937 142.996 142.738C149.1 142.549 149.105 142.548 149.31 140.772C149.599 138.268 147.627 134.485 145.444 133.358C142.801 131.993 138.366 132.164 135.793 133.731ZM171.86 133.492C169.854 134.48 169.774 134.642 170.661 135.932C171.183 136.692 172.003 137.19 172.483 137.039C176.535 135.763 180.236 136.558 180.236 138.702C180.236 139.373 179.177 139.604 176.1 139.604C172.851 139.604 171.657 139.889 170.537 140.931C165.93 145.218 170.596 151.402 176.994 149.489C178.416 149.063 179.581 148.432 179.581 148.086C179.581 147.741 179.876 147.458 180.236 147.458C180.597 147.458 180.892 147.9 180.892 148.44C180.892 149.094 181.547 149.421 182.858 149.421H184.824V143.234C184.824 136.406 184.164 134.22 181.772 133.131C179.461 132.08 174.352 132.266 171.86 133.492ZM61.0648 137.415C63.0159 139.178 62.4837 139.604 58.3311 139.604C55.5417 139.604 54.3987 139.357 54.3987 138.753C54.3987 136.337 58.8777 135.438 61.0648 137.415ZM144.166 137.597C145.209 139.543 145.11 139.604 140.912 139.604C137.914 139.604 136.98 139.379 136.98 138.655C136.98 136.286 142.99 135.402 144.166 137.597ZM180.051 143.291C180.813 145.611 175.331 147.15 173.623 145.096C172.88 144.201 172.941 143.903 174.035 143.104C175.495 142.037 179.682 142.168 180.051 143.291Z" fill="white"/>
</svg>
